:SAMPLES-PER-SECOND 30
:FULLY-SPECIFIED
:DEGREES
328
root  -26.0606 21.3622 8.0423 135.975 -58.9614 -143.593
RightUpLeg  -59.9694 -11.412 -4.35957
RightLeg  120.76 4.93458 -6.95972
RightFoot  -17.6331 0.0148074 2.37799
RightToes  0.000482159 0.542163 -0.142577
Spine  35.4167 -4.3177 16.7071
Spine1  5.185 1.17538 0.273557
HEad  18.8913 13.865 0.0640479
LeftShoulder1  2.67085 -8.84736 -14.7507
LeftArm  -54.1832 -15.2106 -6.10489
LeftForeArm  78.0612 -78.1923 -47.0412
LeftHand  -0.25398 0.0180481 5.50724
RightShoulder  -0.0348426 -6.75227 -8.38032
RightArm  -69.5113 55.1489 -12.6548
RightForeArm  -3.79702 32.8108 7.47562
RightHand  -10.9877 24.3268 -41.4097
LeftUpLeg  -24.5679 22.753 16.8878
LeftLeg  132.283 -4.97481 4.65831
LeftFoot  -24.5626 -1.54309 -14.5168
LeftToes  1.06244e-005 4.65856e-005 -8.18505e-006
329
root  -26.2703 21.2612 8.05719 134.761 -60.7012 -142.502
RightUpLeg  -54.4797 -7.64898 -10.0398
RightLeg  124.657 5.57407 -6.82413
RightFoot  -12.6311 -0.080671 0.329903
RightToes  0.000482159 0.542163 -0.142577
Spine  33.6965 -3.94113 16.1283
Spine1  4.16718 1.09126 -0.00799987
HEad  18.1451 13.6715 -1.96087
LeftShoulder1  2.60419 -8.94875 -13.9729
LeftArm  -55.2539 -16.7377 -5.22761
LeftForeArm  75.1554 -77.456 -43.1626
LeftHand  -0.25398 0.0180481 5.50724
RightShoulder  -0.0586188 -7.1011 -7.75793
RightArm  -71.245 53.7762 -13.8337
RightForeArm  -5.2201 32.6713 7.51608
RightHand  -11.0586 24.4138 -41.5398
LeftUpLeg  -24.2482 21.8157 15.403
LeftLeg  132.286 -5.59035 5.2814
LeftFoot  -25.1417 -1.51512 -13.711
LeftToes  1.06244e-005 4.65856e-005 -8.18505e-006
330
root  -26.4302 21.1483 7.99898 133.758 -62.6603 -141.56
RightUpLeg  -48.8007 -4.26569 -13.6859
RightLeg  126.812 4.79941 -5.31634
RightFoot  -7.99047 -0.0349393 -0.842837
RightToes  0.000482159 0.542163 -0.142577
Spine  32.3513 -3.3649 15.0756
Spine1  2.55245 1.0099 -0.316317
HEad  17.5951 13.0798 -3.83143
LeftShoulder1  2.47262 -8.90348 -12.8873
LeftArm  -56.3473 -18.1445 -3.81228
LeftForeArm  74.231 -77.1232 -41.5799
LeftHand  -0.25398 0.0180481 5.50724
RightShoulder  -0.0858801 -7.78424 -7.30883
RightArm  -72.682 52.2509 -14.6902
RightForeArm  -5.18066 33.3878 7.70949
RightHand  -11.0294 24.4118 -41.4426
LeftUpLeg  -23.9801 20.2326 13.8713
LeftLeg  132.366 -5.62427 5.29954
LeftFoot  -25.7445 -1.46297 -12.7549
LeftToes  1.06244e-005 4.65856e-005 -8.18505e-006
331
root  -26.534 21.0659 7.91461 132.699 -64.8746 -140.469
RightUpLeg  -43.4623 -2.95985 -14.8117
RightLeg  127.124 4.32787 -4.68409
RightFoot  -6.50082 -0.0262368 -0.425153
RightToes  0.000482159 0.542163 -0.142577
Spine  31.3674 -2.82426 13.4005
Spine1  0.673926 0.686355 -0.041826
HEad  16.9106 12.6105 -5.50571
LeftShoulder1  2.2376 -8.37877 -11.6743
LeftArm  -58.0105 -19.6997 -1.7871
LeftForeArm  73.2255 -76.8283 -40.3568
LeftHand  -0.25398 0.0180481 5.50724
RightShoulder  -0.0918543 -8.35057 -7.47091
RightArm  -74.2423 50.5757 -15.1942
RightForeArm  -4.04952 34.3433 7.91321
RightHand  -11.0411 24.5171 -41.3481
LeftUpLeg  -23.9907 17.9615 12.2482
LeftLeg  132.419 -5.13905 4.79871
LeftFoot  -26.1679 -1.42789 -12.1409
LeftToes  1.06244e-005 4.65856e-005 -8.18505e-006
332
root  -26.6111 21.0233 7.83019 132.216 -67.0369 -139.724
RightUpLeg  -38.9745 -3.60815 -14.3633
RightLeg  126.281 5.19901 -5.93816
RightFoot  -8.7036 -0.0874629 1.46849
RightToes  0.000482159 0.542163 -0.142577
Spine  30.4202 -2.34541 11.5717
Spine1  -1.27664 0.462617 0.618054
HEad  16.512 12.1121 -6.54512
LeftShoulder1  1.96368 -7.67407 -10.2751
LeftArm  -60.4464 -21.8437 0.681497
LeftForeArm  70.3117 -75.9176 -37.1013
LeftHand  -0.25398 0.0180481 5.50724
RightShoulder  -0.0903203 -8.78484 -7.75787
RightArm  -76.0593 48.937 -15.642
RightForeArm  -3.00773 35.247 8.11238
RightHand  -11.22 24.76 -41.6436
LeftUpLeg  -24.5261 16.0783 10.4283
LeftLeg  132.391 -4.92719 4.5896
LeftFoot  -26.2481 -1.41981 -12.0194
LeftToes  1.06244e-005 4.65856e-005 -8.18505e-006
333
root  -26.6566 20.9503 7.71964 133.058 -69.0088 -140.132
RightUpLeg  -35.9434 -4.93935 -13.6173
RightLeg  125.309 7.47671 -9.07046
RightFoot  -12.9064 -0.0259427 4.22148
RightToes  0.000482159 0.542163 -0.142577
Spine  29.4641 -1.79774 9.74219
Spine1  -3.45985 0.561792 0.867067
HEad  16.8085 11.3347 -6.8882
LeftShoulder1  1.69712 -7.0785 -8.57022
LeftArm  -63.4226 -24.6146 3.2234
LeftForeArm  65.4849 -74.0669 -31.9338
LeftHand  -0.25398 0.0180481 5.50724
RightShoulder  -0.0866462 -9.31404 -7.90376
RightArm  -78.2275 47.6335 -16.0626
RightForeArm  -1.86424 36.1592 8.31294
RightHand  -11.647 25.3153 -42.3597
LeftUpLeg  -25.4509 14.9357 8.49368
LeftLeg  132.53 -4.95487 4.59483
LeftFoot  -26.1007 -1.41008 -12.0587
LeftToes  1.06244e-005 4.65856e-005 -8.18505e-006
334
root  -26.6435 20.7915 7.57174 134.097 -71.1841 -140.862
RightUpLeg  -34.069 -5.89935 -13.5276
RightLeg  124.983 10.1054 -12.5008
RightFoot  -16.9116 0.235864 7.23326
RightToes  0.000482159 0.542163 -0.142577
Spine  28.8494 -1.37031 7.70097
Spine1  -5.82652 0.541707 0.833385
HEad  17.4782 10.3933 -6.97006
LeftShoulder1  1.42156 -6.42935 -6.63283
LeftArm  -66.6801 -27.6309 5.58001
LeftForeArm  60.6731 -71.6337 -26.9729
LeftHand  -0.25398 0.0180481 5.50724
RightShoulder  -0.0742253 -9.91755 -8.28719
RightArm  -80.8058 46.7046 -16.3043
RightForeArm  -0.00947003 37.191 8.51265
RightHand  -12.2319 26.2637 -43.0597
LeftUpLeg  -26.4993 13.5387 6.59914
LeftLeg  133.069 -4.6772 4.23197
LeftFoot  -25.8107 -1.38617 -12.1014
LeftToes  1.06244e-005 4.65856e-005 -8.18505e-006
335
root  -26.554 20.5425 7.39084 132.847 -73.9855 -139.643
RightUpLeg  -32.4725 -6.02212 -14.4689
RightLeg  125.761 11.2536 -13.5564
RightFoot  -19.3649 0.549122 9.7324
RightToes  0.000482159 0.542163 -0.142577
Spine  28.8167 -1.34623 5.31511
Spine1  -7.9913 -0.043114 1.25477
HEad  18.0011 9.42828 -7.07242
LeftShoulder1  1.13676 -5.55507 -4.64797
LeftArm  -70.1618 -30.5065 7.69505
LeftForeArm  57.5907 -69.3648 -23.4629
LeftHand  -0.25398 0.0180481 5.50724
RightShoulder  -0.0331607 -10.4711 -9.06534
RightArm  -83.5784 45.9052 -16.4803
RightForeArm  1.60191 38.5517 8.83571
RightHand  -12.6762 27.0886 -43.4299
LeftUpLeg  -27.5359 11.1344 4.88097
LeftLeg  134.035 -4.19704 3.62258
LeftFoot  -25.4968 -1.37951 -12.3025
LeftToes  1.06244e-005 4.65856e-005 -8.18505e-006
